<?xml version="1.0" encoding="iso-8859-1"?>
<!-- Generator: Adobe Illustrator 19.0.0, SVG Export Plug-In . SVG Version: 6.00 Build 0)  -->
<svg version="1.1" id="Layer_1" xmlns="http://www.w3.org/2000/svg" xmlns:xlink="http://www.w3.org/1999/xlink" x="0px" y="0px"
	 viewBox="0 0 392.54 392.54" style="enable-background:new 0 0 392.54 392.54;" xml:space="preserve">
<g>
	<g>
		<path d="M391.698,342.92l-28.251-66.909V45.482c0-6.012-4.848-10.925-10.925-10.925H40.022c-6.012,0-10.925,4.848-10.925,10.925
			v230.529L0.846,342.92c-1.358,3.362-1.099,7.24,0.905,10.214c2.004,2.974,5.43,4.848,9.115,4.848h370.747
			c3.62,0,7.046-1.875,9.115-4.848C392.797,350.161,393.056,346.282,391.698,342.92z M51.012,193.264h22.044
			c6.012,0,10.925-4.849,10.925-10.925c0-6.077-4.849-10.925-10.925-10.925H51.012v-19.394h42.667
			c6.012,0,10.925-4.848,10.925-10.925c0-6.012-4.848-10.925-10.925-10.925H51.012V56.343h290.521v210.941H51.012V193.264z
			 M27.351,336.262l19.911-47.127h297.956l19.911,47.127H27.351z"/>
	</g>
</g>
<g>
	<g>
		<path d="M221.743,301.805h-51.006c-6.012,0-10.925,4.848-10.925,10.925c0,6.012,4.848,10.925,10.925,10.925h51.006
			c6.012,0,10.925-4.849,10.925-10.925S227.82,301.805,221.743,301.805z"/>
	</g>
</g>
<g>
	<g>
		<path d="M277.468,132.173L172.741,97.329c-3.943-1.293-8.275-0.323-11.119,2.651c-2.909,2.909-3.943,7.24-2.651,11.119
			l34.844,104.792c1.487,4.461,5.624,7.499,10.343,7.499h0.065c4.719,0,8.857-3.103,10.279-7.628l11.378-36.073l32.323,32.323
			c3.62,3.62,11.636,3.685,15.451,0c4.267-4.267,4.267-11.119,0-15.451l-32.323-32.323l36.008-11.313
			c4.461-1.422,7.564-5.56,7.628-10.279C284.967,137.862,281.993,133.725,277.468,132.173z M217.605,148.787
			c-3.426,1.099-6.077,3.685-7.111,7.111l-6.659,21.01l-17.325-52.105l52.105,17.325L217.605,148.787z"/>
	</g>
</g>
<g>
</g>
<g>
</g>
<g>
</g>
<g>
</g>
<g>
</g>
<g>
</g>
<g>
</g>
<g>
</g>
<g>
</g>
<g>
</g>
<g>
</g>
<g>
</g>
<g>
</g>
<g>
</g>
<g>
</g>
</svg>
